<svg xmlns="http://www.w3.org/2000/svg" viewBox="0 0 1022 1205.47"><defs><style>.cls-1{fill:#5551fb;}</style></defs><title>big-wave-footer</title><g id="Calque_2" data-name="Calque 2"><g id="Calque_1-2" data-name="Calque 1"><path class="cls-1" d="M965.4,634.22c-11.05-62.54,17.74-125.73,56.6-189.14V127.37L895.15,122.6C862.16,70.94,815,28.81,755.89,8.72c-27.37-9.7-57.28-9-85.8-8.46-78.13,3.12-159,15.29-235.3,29.53C279.17,59.86,126.72,137.13,0,233.82v971.65c85.15-8.23,171.35-32,240.37-69,88-46.26,159.81-129.82,206.76-216.37,24.05-44.08,52.06-81.68,98.4-103.77,46.11-23.48,97.34-33.52,142.12-5.29,33.65,21.52,61,48.38,100.93,56,55,12.21,122.18-4.8,157.36-50.76C967,788.4,985,759.63,980.6,724.62,977.08,695.18,970.54,664.82,965.4,634.22Z"/></g></g></svg>