<svg xmlns="http://www.w3.org/2000/svg" viewBox="0 0 65 242.94"><defs><style>.cls-1{fill:#5551fb;}</style></defs><title>entrelaces</title><g id="Calque_2" data-name="Calque 2"><g id="Calque_1-2" data-name="Calque 1"><path class="cls-1" d="M65,0c0,19.73-15.61,29.49-28.15,37.33S16.42,50.61,16.42,60.73s7.77,15.49,20.43,23.41S65,101.73,65,121.46,49.39,151,36.85,158.8s-20.43,13.28-20.43,23.4,7.77,15.5,20.43,23.41S65,223.2,65,242.93H48.58c0-10.12-7.76-15.49-20.43-23.41S0,201.93,0,182.2s15.61-29.49,28.15-37.32,20.43-13.3,20.43-23.42S40.82,106,28.15,98,0,80.46,0,60.73,15.61,31.24,28.15,23.41,48.58,10.12,48.58,0Z"/><path class="cls-1" d="M65,60.74c0,19.74-15.61,29.5-28.15,37.34s-20.43,13.28-20.43,23.4,7.77,15.5,20.43,23.41S65,162.48,65,182.22,49.39,211.7,36.85,219.53s-20.43,13.29-20.43,23.41H0c0-19.74,15.61-29.49,28.15-37.33s20.43-13.28,20.43-23.4-7.77-15.49-20.43-23.41S0,141.21,0,121.48,15.61,92,28.15,84.16s20.43-13.3,20.43-23.42S40.81,45.25,28.15,37.33,0,19.74,0,0H16.42c0,10.12,7.77,15.5,20.43,23.41S65,41,65,60.74Z"/></g></g></svg>