<svg xmlns="http://www.w3.org/2000/svg" viewBox="0 0 34.02 34.02"><defs><style>.cls-1{fill:#ff6045;}.cls-2{fill:#fff;}</style></defs><title>icn-share-twitter-orange</title><g id="Calque_2" data-name="Calque 2"><g id="Calque_1-2" data-name="Calque 1"><path class="cls-1" d="M17,34A17,17,0,1,0,0,17,17,17,0,0,0,17,34"/><path class="cls-2" d="M25.54,12.55a7,7,0,0,1-2,.55,3.49,3.49,0,0,0,1.54-1.93,7,7,0,0,1-2.22.85,3.5,3.5,0,0,0-6,2.39,3.43,3.43,0,0,0,.09.79,9.93,9.93,0,0,1-7.21-3.65,3.5,3.5,0,0,0,1.08,4.67,3.48,3.48,0,0,1-1.58-.44v0A3.5,3.5,0,0,0,12,19.25a3.51,3.51,0,0,1-1.58.06,3.49,3.49,0,0,0,3.26,2.43,7,7,0,0,1-4.34,1.5,7.2,7.2,0,0,1-.83,0,9.94,9.94,0,0,0,15.3-8.38c0-.15,0-.3,0-.45a7.08,7.08,0,0,0,1.74-1.81"/></g></g></svg>