<svg xmlns="http://www.w3.org/2000/svg" viewBox="0 0 55.72 55.07"><defs><style>.cls-1{fill:#fff;}</style></defs><title>icn-diaporama</title><g id="Calque_2" data-name="Calque 2"><g id="Calque_1-2" data-name="Calque 1"><path class="cls-1" d="M14.09.76a2.6,2.6,0,0,0-3.68,0L.76,10.42a2.6,2.6,0,0,0,0,3.68l9.66,9.66a2.6,2.6,0,0,0,3.68,0l9.66-9.65a2.6,2.6,0,0,0,0-3.68ZM12.26,21.91,2.6,12.25,12.25,2.6h0l9.65,9.66Zm29.37,1.84a2.6,2.6,0,0,0,3.68,0L55,14.09a2.6,2.6,0,0,0,0-3.68L45.3.76a2.6,2.6,0,0,0-3.68,0L32,10.42a2.6,2.6,0,0,0,0,3.68ZM43.46,2.6h0l9.66,9.66-9.66,9.65-9.65-9.66ZM14.09,31.32a2.6,2.6,0,0,0-3.68,0L.76,41a2.6,2.6,0,0,0,0,3.68l9.66,9.66a2.6,2.6,0,0,0,3.68,0l9.66-9.66a2.6,2.6,0,0,0,0-3.68ZM12.26,52.47,2.6,42.81l9.65-9.65h0l9.65,9.66Zm33-21.15a2.6,2.6,0,0,0-3.68,0L32,41a2.6,2.6,0,0,0,0,3.68l9.65,9.66a2.6,2.6,0,0,0,3.68,0L55,44.65A2.6,2.6,0,0,0,55,41ZM43.46,52.47l-9.65-9.65,9.65-9.65h0l9.66,9.66Z"/></g></g></svg>