<svg xmlns="http://www.w3.org/2000/svg" viewBox="0 0 36.02 36.02"><defs><style>.cls-1{fill:#1a1a1a;}.cls-2{fill:#fff;}</style></defs><title>icn-twitter</title><g id="Calque_2" data-name="Calque 2"><g id="Calque_1-2" data-name="Calque 1"><path class="cls-1" d="M18,36A18,18,0,1,0,0,18,18,18,0,0,0,18,36"/><path class="cls-2" d="M27,13.29a7.46,7.46,0,0,1-2.12.58,3.7,3.7,0,0,0,1.63-2,7.35,7.35,0,0,1-2.35.9,3.7,3.7,0,0,0-6.4,2.53,3.6,3.6,0,0,0,.1.84,10.49,10.49,0,0,1-7.63-3.87,3.71,3.71,0,0,0,1.14,4.94,3.72,3.72,0,0,1-1.68-.46v0a3.7,3.7,0,0,0,3,3.63,3.69,3.69,0,0,1-1.67.06A3.7,3.7,0,0,0,14.48,23a7.44,7.44,0,0,1-4.6,1.58A7.32,7.32,0,0,1,9,24.55a10.52,10.52,0,0,0,16.2-8.87c0-.16,0-.32,0-.48A7.46,7.46,0,0,0,27,13.29"/></g></g></svg>