<svg xmlns="http://www.w3.org/2000/svg" viewBox="0 0 169.74 25.1"><defs><style>.cls-1{fill:#5651fb;}</style></defs><title>logo</title><g id="Calque_2" data-name="Calque 2"><g id="Calque_1-2" data-name="Calque 1"><path class="cls-1" d="M92.64,23.52c-3.87,0-5.67-3.49-7.12-6.29C84.15,14.58,83.21,13,81.74,13S79.33,14.58,78,17.23c-1.45,2.8-3.25,6.29-7.12,6.29S65.17,20,63.72,17.23C62.35,14.58,61.41,13,59.94,13s-2.41,1.61-3.78,4.26C54.71,20,52.91,23.52,49,23.52S43.37,20,41.93,17.23C40.56,14.58,39.62,13,38.15,13V9.21c3.87,0,5.67,3.49,7.12,6.29,1.37,2.65,2.3,4.26,3.78,4.26s2.41-1.61,3.78-4.26c1.45-2.8,3.25-6.29,7.12-6.29s5.67,3.49,7.12,6.29c1.37,2.65,2.3,4.26,3.78,4.26s2.41-1.61,3.78-4.26c1.45-2.8,3.25-6.29,7.12-6.29s5.67,3.49,7.12,6.29c1.37,2.65,2.31,4.26,3.78,4.26Z"/><rect x="4.05" y="10.59" width="3.76" height="11.86" transform="translate(-10.6 22.43) rotate(-89.93)"/><polygon points="32.4 13.05 27.54 22.86 25.16 22.86 20.33 13.05 20.33 24.35 16.32 24.35 16.32 6.4 21.74 6.4 26.36 16.26 31.01 6.4 36.4 6.4 36.4 24.35 32.4 24.35 32.4 13.05"/><rect class="cls-1" x="110.52" y="14.06" width="20.53" height="3.76" transform="translate(32.35 99.74) rotate(-50.98)"/><rect class="cls-1" x="122.86" y="14.07" width="3.76" height="10.27" transform="translate(32.11 104.93) rotate(-51.53)"/><rect class="cls-1" x="123.88" y="14.02" width="20.53" height="3.76" transform="translate(37.36 110.13) rotate(-50.99)"/><rect class="cls-1" x="136.23" y="14.03" width="3.76" height="10.27" transform="translate(37.17 115.36) rotate(-51.52)"/><rect class="cls-1" x="137.25" y="13.98" width="20.53" height="3.76" transform="translate(42.31 120.48) rotate(-50.98)"/><rect class="cls-1" x="149.6" y="14" width="3.76" height="10.27" transform="translate(42.25 125.8) rotate(-51.52)"/><rect class="cls-1" x="150.32" y="13.7" width="20.53" height="3.76" transform="translate(47.37 130.53) rotate(-50.98)"/><rect class="cls-1" x="162.67" y="13.72" width="3.76" height="10.27" transform="translate(47.42 135.95) rotate(-51.53)"/><path d="M97.16,6.49V24.71h13.42v-3.6h-9.36V15.92h8.16V12.45h-8.16V10.11h9.07V6.49ZM104.79,0l-3.31,4.61h3.72l3.63-2.92Z"/></g></g></svg>