<svg xmlns="http://www.w3.org/2000/svg" viewBox="0 0 287.96 89.84"><defs><style>.cls-1{fill:#5651fb;}</style></defs><title>logo-big</title><g id="Calque_2" data-name="Calque 2"><g id="Calque_1-2" data-name="Calque 1"><polygon class="cls-1" points="18.81 89.84 0 78.4 2.56 74.18 17.92 83.52 31.45 68.8 48.53 79.19 62.06 64.47 80.87 75.91 78.31 80.12 62.95 70.79 49.42 85.51 32.34 75.12 18.81 89.84"/><path class="cls-1" d="M216.35,27.71c-4.47,0-7.51-3-10-5.41-2.87-2.79-4.77-4.46-7.71-3.9l-.93-4.84c5.61-1.07,9.19,2.41,12.07,5.21s4.77,4.47,7.71,3.9,4.09-2.83,5.72-6.48,3.68-8.23,9.29-9.31,9.19,2.41,12.07,5.21,4.77,4.47,7.71,3.9,4.08-2.83,5.71-6.48,3.68-8.23,9.29-9.31,9.19,2.41,12.07,5.21,4.77,4.47,7.71,3.9l.93,4.84c-5.6,1.08-9.19-2.41-12.07-5.21s-4.77-4.46-7.71-3.9-4.08,2.83-5.71,6.48-3.68,8.23-9.29,9.31-9.19-2.41-12.07-5.21-4.77-4.46-7.71-3.9-4.09,2.83-5.71,6.48-3.68,8.23-9.29,9.31A10.87,10.87,0,0,1,216.35,27.71Z"/><rect class="cls-1" x="181.08" y="70.2" width="25.34" height="4.93" transform="translate(-9.53 33.98) rotate(-9.78)"/><path d="M102.13,57.73l.62,3.82-9.57,1.56.4,2.47,8.61-1.4.59,3.66-8.61,1.4.89,5.48,9.88-1.6.62,3.8-14.17,2.3L88.26,60Zm-5.69-1.11-3.93.64,2.7-5.44,4.55,1.09Z"/><polygon points="109.38 76.28 106.25 57.05 110.55 56.36 113.05 71.76 121.25 70.43 121.87 74.25 109.38 76.28"/><path d="M151.21,65.59A6.42,6.42,0,0,0,156,62.24l3.21,2.39A10.51,10.51,0,0,1,144.29,68a9.6,9.6,0,0,1-4-6.62A9.7,9.7,0,0,1,142,53.72a10,10,0,0,1,6.7-4A10.29,10.29,0,0,1,157.25,52l-2.18,3.46a6.34,6.34,0,0,0-5.47-1.71A6,6,0,0,0,145.71,56a5.58,5.58,0,0,0-1,4.54,5.89,5.89,0,0,0,2.32,4,5.42,5.42,0,0,0,4.2,1"/><polygon points="168.75 50.71 171.27 66.22 166.98 66.92 164.46 51.41 159.01 52.29 158.41 48.58 173.59 46.11 174.2 49.82 168.75 50.71"/><path d="M193.37,49.44q.75,4.62-2.69,6.56l6,6.09-5.28.86-5.26-5.44-3,.48,1,6.13-4.29.7L176.73,45.6,184,44.41q4.48-.73,6.64.47t2.7,4.56m-4.8,3.12a2.94,2.94,0,0,0,.43-2.4,2.46,2.46,0,0,0-1.17-2,5.35,5.35,0,0,0-3-.11l-3.22.52.93,5.69,3.14-.51a4.67,4.67,0,0,0,2.88-1.2"/><rect x="198.26" y="41.87" width="4.35" height="19.48" transform="translate(-5.68 32.79) rotate(-9.22)"/><path d="M226.39,47.27a9.94,9.94,0,0,1-.65,5.64,9.56,9.56,0,0,1-3.53,4.25,2,2,0,0,0,.9.57,2.35,2.35,0,0,0,1.16.11,3.64,3.64,0,0,0,1.1-.36,3.06,3.06,0,0,0,.81-.57,4.1,4.1,0,0,0,.83-1.29l2.66,2.31a7.9,7.9,0,0,1-5.51,3.46,6.56,6.56,0,0,1-3.39-.38,6.19,6.19,0,0,1-2.87-2.16,10,10,0,0,1-7.64-1.68A10.19,10.19,0,0,1,208,43a10.62,10.62,0,0,1,14.36-2.33,9.63,9.63,0,0,1,4.07,6.61M222,48a6.38,6.38,0,0,0-2.36-4.12,5.51,5.51,0,0,0-8.12,1.32A6.73,6.73,0,0,0,213,54a5.54,5.54,0,0,0,8.11-1.32A6.32,6.32,0,0,0,222,48"/><path d="M235.91,50.62a3.56,3.56,0,0,0,3.1.87,3.52,3.52,0,0,0,2.66-1.8,5.79,5.79,0,0,0,.47-3.82l-1.73-10.62,4.29-.7,1.75,10.76a8.66,8.66,0,0,1-1.27,6.8A9,9,0,0,1,233.34,54,8.63,8.63,0,0,1,230,48l-1.75-10.76,4.29-.7,1.73,10.62a5.73,5.73,0,0,0,1.66,3.47"/><path d="M272.27,34a1.68,1.68,0,0,0-.4,1.45,1.55,1.55,0,0,0,1,1.21,14,14,0,0,0,3.68.6,10,10,0,0,1,4.58,1.33,5.06,5.06,0,0,1,2.15,3.69A5.26,5.26,0,0,1,282,46.79a7.83,7.83,0,0,1-4.84,2.44,12,12,0,0,1-8.78-2l2-3.55q3.55,2.22,6.19,1.79a3.07,3.07,0,0,0,1.78-.81,1.66,1.66,0,0,0,.45-1.49,1.63,1.63,0,0,0-.94-1.26,9.5,9.5,0,0,0-3-.57A12.47,12.47,0,0,1,269.67,40a5,5,0,0,1-2.21-3.76,5,5,0,0,1,1.28-4.54,8,8,0,0,1,4.67-2.28,12,12,0,0,1,4,0A10.46,10.46,0,0,1,281,30.79l-1.66,3.49a8.58,8.58,0,0,0-5.48-1.06,2.62,2.62,0,0,0-1.61.78"/><polygon points="136.07 52.21 136.69 56.03 126.79 57.64 127.72 63.34 136.33 61.95 136.92 65.6 128.31 67 128.68 69.25 138.25 67.69 138.87 71.49 125 73.74 121.88 54.52 136.07 52.21"/><polygon points="262.98 31.58 263.61 35.4 254.03 36.96 254.43 39.42 263.04 38.02 263.64 41.68 255.03 43.08 255.92 48.56 265.8 46.96 266.41 50.76 252.25 53.06 249.12 33.83 262.98 31.58"/><polygon points="56.58 42.98 53.11 54.29 50.56 54.71 43.7 45.08 45.66 57.13 41.39 57.83 38.27 38.67 44.06 37.73 50.7 47.45 53.95 36.13 59.7 35.19 62.82 54.34 58.54 55.04 56.58 42.98"/><polygon points="100.65 35.82 97.17 47.13 94.62 47.54 87.77 37.91 89.73 49.97 85.45 50.66 82.34 31.51 88.12 30.57 94.77 40.29 98.02 28.96 103.77 28.02 106.89 47.18 102.61 47.88 100.65 35.82"/><path d="M127.28,41.15A10.57,10.57,0,0,1,113,43.48a9.59,9.59,0,0,1-4.05-6.58,9.59,9.59,0,0,1,1.76-7.53A10.58,10.58,0,0,1,125,27,9.59,9.59,0,0,1,129,33.62a9.59,9.59,0,0,1-1.76,7.53m-2.6-6.81a6.35,6.35,0,0,0-2.35-4.1,5.49,5.49,0,0,0-8.08,1.31,6.7,6.7,0,0,0,1.42,8.73A5.52,5.52,0,0,0,123.75,39a6.3,6.3,0,0,0,.94-4.62"/><rect x="132.65" y="23.11" width="4.33" height="19.41" transform="translate(-3.52 22.06) rotate(-9.23)"/><path d="M156.68,25.95q.75,4.6-2.68,6.54l6,6.06-5.26.86L149.46,34l-3,.48,1,6.11-4.28.69-3.11-19.15,7.26-1.18q4.46-.72,6.62.47t2.69,4.54m-4.78,3.11a2.94,2.94,0,0,0,.43-2.39,2.45,2.45,0,0,0-1.17-2,5.32,5.32,0,0,0-3-.11l-3.21.52.92,5.67,3.12-.51a4.66,4.66,0,0,0,2.87-1.2"/><path d="M183.05,19.06a1.67,1.67,0,0,0-.4,1.44,1.54,1.54,0,0,0,1,1.21,13.91,13.91,0,0,0,3.67.6,10,10,0,0,1,4.56,1.33A5,5,0,0,1,194,27.31a5.24,5.24,0,0,1-1.25,4.49,7.81,7.81,0,0,1-4.82,2.43,11.93,11.93,0,0,1-8.74-2l2-3.54q3.54,2.21,6.17,1.78a3.06,3.06,0,0,0,1.77-.81,1.66,1.66,0,0,0,.45-1.48,1.62,1.62,0,0,0-.94-1.25,9.41,9.41,0,0,0-3-.57,12.43,12.43,0,0,1-5.23-1.27,5,5,0,0,1-2.2-3.75,5,5,0,0,1,1.28-4.53,8,8,0,0,1,4.65-2.27,11.93,11.93,0,0,1,3.94,0,10.41,10.41,0,0,1,3.65,1.32l-1.66,3.48a8.55,8.55,0,0,0-5.46-1.05,2.61,2.61,0,0,0-1.6.78"/><polygon points="174.12 16.63 174.74 20.44 164.87 22.04 165.8 27.72 174.38 26.33 174.97 29.97 166.39 31.37 166.75 33.6 176.29 32.05 176.91 35.84 163.09 38.08 159.98 18.93 174.12 16.63"/><path d="M78.27,32.21,78.89,36l-9.54,1.55.4,2.46,8.58-1.39.59,3.65-8.58,1.39.89,5.46,9.84-1.6.62,3.78L67.57,53.61,64.46,34.46Zm-5.67-1.1-3.92.64,2.69-5.42,4.54,1.09Z"/></g></g></svg>