<svg xmlns="http://www.w3.org/2000/svg" viewBox="0 0 169.74 25.1"><defs><style>.cls-1{fill:#ff6045;}</style></defs><title>logo-orange</title><g id="Calque_2" data-name="Calque 2"><g id="Calque_1-2" data-name="Calque 1"><path class="cls-1" d="M92.61,23.65c-3.87,0-5.66-3.51-7.09-6.33-1.36-2.66-2.29-4.27-3.76-4.28s-2.42,1.6-3.8,4.24c-1.46,2.8-3.28,6.28-7.15,6.26S65.15,20,63.71,17.22C62.36,14.57,61.43,13,60,12.94s-2.42,1.6-3.8,4.24C54.7,20,52.88,23.47,49,23.45s-5.65-3.52-7.09-6.33c-1.36-2.66-2.28-4.27-3.76-4.28l0-3.76c3.87,0,5.65,3.52,7.09,6.33,1.36,2.66,2.29,4.27,3.76,4.28s2.42-1.6,3.8-4.24c1.46-2.8,3.28-6.28,7.15-6.26s5.65,3.52,7.09,6.33c1.36,2.66,2.29,4.27,3.76,4.28s2.42-1.6,3.8-4.24c1.46-2.8,3.28-6.28,7.15-6.26s5.66,3.52,7.09,6.33c1.36,2.66,2.29,4.27,3.76,4.28Z"/><rect x="4.05" y="10.59" width="3.76" height="11.86" transform="matrix(0, -1, 1, 0, -10.6, 22.43)"/><polygon points="32.4 13.05 27.54 22.86 25.15 22.86 20.33 13.05 20.33 24.35 16.32 24.35 16.32 6.4 21.74 6.4 26.36 16.26 31.01 6.4 36.4 6.4 36.4 24.35 32.4 24.35 32.4 13.05"/><rect class="cls-1" x="110.52" y="14.06" width="20.53" height="3.76" transform="translate(32.36 99.75) rotate(-50.98)"/><rect class="cls-1" x="122.86" y="14.07" width="3.76" height="10.27" transform="translate(32.11 104.93) rotate(-51.53)"/><rect class="cls-1" x="123.88" y="14.02" width="20.53" height="3.76" transform="translate(37.37 110.14) rotate(-51)"/><rect class="cls-1" x="136.23" y="14.03" width="3.76" height="10.27" transform="translate(37.17 115.36) rotate(-51.52)"/><rect class="cls-1" x="137.25" y="13.98" width="20.53" height="3.76" transform="translate(42.31 120.47) rotate(-50.97)"/><rect class="cls-1" x="149.6" y="14" width="3.76" height="10.27" transform="translate(42.25 125.8) rotate(-51.52)"/><rect class="cls-1" x="150.32" y="13.7" width="20.53" height="3.76" transform="translate(47.36 130.52) rotate(-50.97)"/><rect class="cls-1" x="162.67" y="13.72" width="3.76" height="10.27" transform="translate(47.42 135.95) rotate(-51.53)"/><path d="M97.16,6.49V24.71h13.42v-3.6h-9.36V15.92h8.16V12.45h-8.16V10.11h9.07V6.49ZM104.79,0l-3.31,4.61h3.72l3.63-2.92Z"/></g></g></svg>