<svg xmlns="http://www.w3.org/2000/svg" viewBox="0 0 42.75 159.22"><defs><style>.cls-1{fill:#001fff;stroke:#001fff;stroke-miterlimit:10;}</style></defs><title>wave-vertical</title><g id="Calque_2" data-name="Calque 2"><g id="Calque_1-2" data-name="Calque 1"><path class="cls-1" d="M.5,158.72c0-11.29,10.16-16.55,18.32-20.77,7.67-4,12.31-6.67,12.31-10.89s-4.65-6.93-12.31-10.89C10.66,112,.5,106.71.5,95.42S10.66,78.88,18.82,74.67c7.67-4,12.31-6.67,12.31-10.89s-4.65-6.93-12.31-10.88C10.66,48.67.5,43.43.5,32.14S10.66,15.6,18.82,11.38C26.49,7.43,31.14,4.72,31.14.5H42.25c0,11.3-10.17,16.54-18.33,20.76-7.66,4-12.31,6.66-12.31,10.88S16.26,39.06,23.92,43c8.17,4.22,18.33,9.46,18.33,20.76S32.09,80.32,23.92,84.54c-7.66,4-12.31,6.65-12.31,10.88s4.65,6.93,12.31,10.89c8.17,4.22,18.33,9.47,18.33,20.76s-10.16,16.55-18.33,20.76c-7.66,4-12.31,6.67-12.31,10.89Z"/></g></g></svg>